<svg xmlns="http://www.w3.org/2000/svg" viewBox="0 0 240 220" role="img" aria-label="drift zombie placeholder sprite">
  <defs>
    <filter id="redGlow" x="-45%" y="-45%" width="190%" height="190%">
      <feGaussianBlur stdDeviation="5" result="blur"/>
      <feMerge><feMergeNode in="blur"/><feMergeNode in="SourceGraphic"/></feMerge>
    </filter>
    <linearGradient id="body" x1="0" x2="1" y1="0" y2="1">
      <stop offset="0" stop-color="#4a2c25"/>
      <stop offset=".55" stop-color="#842d2f"/>
      <stop offset="1" stop-color="#1d1114"/>
    </linearGradient>
  </defs>
  <ellipse cx="123" cy="178" rx="68" ry="18" fill="#020608" opacity=".5"/>
  <path d="M50 70c28 6 52 20 77 36 23 15 47 23 77 21" fill="none" stroke="#ff625c" stroke-width="9" opacity=".15"/>
  <path d="M39 91c32 6 55 18 82 37 22 15 49 25 83 22" fill="none" stroke="#ff9d45" stroke-width="5" opacity=".18"/>
  <path d="M117 37c47 0 76 32 78 78 2 50-31 73-75 73-45 0-75-28-73-76 2-44 25-75 70-75z" fill="url(#body)" stroke="#ff625c" stroke-width="6" filter="url(#redGlow)"/>
  <path d="M71 84c-17 10-30 23-37 45l24 6 26-31zm97-2c18 7 33 21 43 44l-24 9-33-29z" fill="#2d1418" stroke="#8c4638" stroke-width="5"/>
  <path d="M79 61c11-20 25-32 45-32 21 0 34 13 45 33" fill="none" stroke="#ffd66e" stroke-width="5" opacity=".62"/>
  <rect x="83" y="82" width="22" height="20" rx="2" fill="#ffd66e" opacity=".9"/>
  <rect x="134" y="82" width="22" height="20" rx="2" fill="#ffd66e" opacity=".9"/>
  <path d="M88 133h72v16H88z" fill="#ff625c"/>
  <path d="M98 157l-16 34m52-32 24 31" stroke="#5d2926" stroke-width="9" stroke-linecap="round"/>
  <path d="M175 108c18 16 27 33 28 52" stroke="#ff9d45" stroke-width="6" stroke-linecap="round" opacity=".42"/>
  <path d="M49 110c-16 13-24 28-27 46" stroke="#ff625c" stroke-width="5" stroke-linecap="round" opacity=".3"/>
</svg>
